<?xml version="1.0" encoding="UTF-8"?>
<svg width="3066px" height="513px" viewBox="0 0 3066 513" version="1.1" xmlns="http://www.w3.org/2000/svg" xmlns:xlink="http://www.w3.org/1999/xlink">
    <!-- Generator: Sketch 60 (88103) - https://sketch.com -->
    <title>Logo</title>
    <desc>Created with Sketch.</desc>
    <g id="Page-1" stroke="none" stroke-width="1" fill="none" fill-rule="evenodd">
        <g id="Icon" transform="translate(1.000000, -2.000000)">
            <path d="M146.141456,0 L365.858544,0 C416.675112,0 435.102427,5.29105984 453.680205,15.2265641 C472.257983,25.1620684 486.837932,39.7420171 496.773436,58.3197949 C506.70894,76.8975727 512,95.3248882 512,146.141456 L512,365.858544 C512,416.675112 506.70894,435.102427 496.773436,453.680205 C486.837932,472.257983 472.257983,486.837932 453.680205,496.773436 C435.102427,506.70894 416.675112,512 365.858544,512 L146.141456,512 C95.3248882,512 76.8975727,506.70894 58.3197949,496.773436 C39.7420171,486.837932 25.1620684,472.257983 15.2265641,453.680205 C5.29105984,435.102427 0,416.675112 0,365.858544 L0,146.141456 C0,95.3248882 5.29105984,76.8975727 15.2265641,58.3197949 C25.1620684,39.7420171 39.7420171,25.1620684 58.3197949,15.2265641 C76.8975727,5.29105984 95.3248882,0 146.141456,0 Z" id="Combined-Shape" fill="#1C1C1C"></path>
            <g id="Waveform-3" transform="translate(256.000000, 256.500000) scale(-1, 1) translate(-256.000000, -256.500000) translate(40.000000, 107.000000)">
                <rect id="Selection" stroke="#95F9AB" stroke-width="5" x="174" y="0" width="83" height="299" rx="25"></rect>
                <rect id="Rectangle" fill="#FFFFFF" x="362" y="75" width="14" height="148" rx="7"></rect>
                <rect id="Rectangle-Copy" fill="#FFFFFF" x="334" y="10" width="14" height="278" rx="7"></rect>
                <rect id="Rectangle-Copy-2" fill="#FFFFFF" x="306" y="39" width="14" height="220" rx="7"></rect>
                <rect id="Rectangle-Copy-3" fill="#FFFFFF" x="278" y="65" width="14" height="168" rx="7"></rect>
                <rect id="Rectangle-Copy-4" fill="#95F9AB" x="250" y="86" width="14" height="126" rx="7"></rect>
                <rect id="Rectangle-Copy-6" fill="#95F9AB" x="223" y="116" width="14" height="66" rx="7"></rect>
                <rect id="Rectangle-Copy-7" fill="#95F9AB" x="195" y="112" width="14" height="74" rx="7"></rect>
                <rect id="Rectangle-Copy-8" fill="#95F9AB" x="167" y="128" width="14" height="42" rx="7"></rect>
                <rect id="Rectangle-Copy-9" fill="#FFFFFF" x="139" y="139" width="14" height="20" rx="7"></rect>
                <rect id="Rectangle-Copy-10" fill="#FFFFFF" x="111" y="142" width="14" height="14" rx="7"></rect>
                <rect id="Rectangle-Copy-11" fill="#FFFFFF" x="83" y="142" width="14" height="14" rx="7"></rect>
                <rect id="Rectangle-Copy-12" fill="#FFFFFF" x="56" y="140" width="14" height="18" rx="7"></rect>
                <rect id="Rectangle-Copy-13" fill="#FFFFFF" x="28" y="142" width="14" height="14" rx="7"></rect>
                <rect id="Rectangle-Copy-14" fill="#FFFFFF" x="0" y="140" width="14" height="16" rx="7"></rect>
                <rect id="Rectangle" fill="#FFFFFF" x="390" y="142" width="14" height="14" rx="7"></rect>
                <rect id="Rectangle" fill="#FFFFFF" x="418" y="140" width="14" height="18" rx="7"></rect>
            </g>
        </g>
        <path d="M841.05,398 L811.3,329.575 L690.175,329.575 L659.15,398 L612.4,398 L753.5,97.95 L887.8,398 L841.05,398 Z M708.025,288.775 L793.875,288.775 L751.8,192.725 L708.025,288.775 Z M915.66,219.075 L957.31,219.075 L957.31,321.5 C957.31,332.125 957.735,344.45 964.96,353.8 C970.485,361.025 980.26,366.125 992.16,366.125 C1004.06,366.125 1013.835,361.025 1019.36,353.8 C1026.585,344.45 1027.01,332.125 1027.01,321.5 L1027.01,219.075 L1068.66,219.075 L1068.66,322.775 C1068.66,345.725 1066.11,364.85 1049.535,381.425 C1033.385,397.575 1011.285,403.525 991.31,403.525 C973.035,403.525 950.935,398 934.785,381.425 C918.21,364.85 915.66,345.725 915.66,322.775 L915.66,219.075 Z M1252.07,239.9 L1252.07,88.175 L1293.72,88.175 L1293.72,398 L1252.07,398 L1252.07,379.3 C1233.795,400.55 1211.27,403.525 1198.52,403.525 C1143.27,403.525 1111.82,357.625 1111.82,308.325 C1111.82,250.1 1151.77,214.4 1198.945,214.4 C1212.12,214.4 1235.07,217.8 1252.07,239.9 Z M1204.045,251.8 C1173.87,251.8 1154.32,277.3 1154.32,309.175 C1154.32,340.2 1173.87,366.125 1204.045,366.125 C1230.395,366.125 1254.62,347 1254.62,309.6 C1254.62,270.5 1230.395,251.8 1204.045,251.8 Z M1346.23,219.075 L1387.88,219.075 L1387.88,398 L1346.23,398 L1346.23,219.075 Z M1340.28,145.125 C1340.28,129.825 1351.755,118.35 1367.055,118.35 C1382.355,118.35 1393.83,129.825 1393.83,145.125 C1393.83,160.425 1382.355,171.9 1367.055,171.9 C1351.755,171.9 1340.28,160.425 1340.28,145.125 Z M1526.665,214.4 C1580.64,214.4 1622.29,253.5 1622.29,308.75 C1622.29,363.575 1580.64,403.525 1526.665,403.525 C1472.69,403.525 1431.04,363.575 1431.04,308.75 C1431.04,253.5 1472.69,214.4 1526.665,214.4 Z M1526.665,366.125 C1559.39,366.125 1579.79,343.6 1579.79,309.175 C1579.79,268.375 1553.015,251.8 1526.665,251.8 C1500.315,251.8 1473.54,268.375 1473.54,309.175 C1473.54,343.6 1493.94,366.125 1526.665,366.125 Z M1674.1,114.525 L1736.575,114.525 C1754,114.525 1778.225,116.225 1798.625,129.825 C1822.425,145.55 1833.9,172.75 1833.9,198.675 C1833.9,215.25 1829.65,240.75 1806.275,260.725 C1783.75,279.85 1757.825,282.825 1737,282.825 L1717.45,282.825 L1717.45,398 L1674.1,398 L1674.1,114.525 Z M1718.45,154.475 L1718.45,242.875 L1738,242.875 C1775.4,242.875 1793.25,224.6 1793.25,198.25 C1793.25,182.525 1786.875,154.475 1737.575,154.475 L1718.45,154.475 Z M1974.385,337.65 L2009.235,357.2 C2001.585,370.8 1990.535,382.7 1979.06,389.925 C1964.61,399.275 1945.485,403.525 1926.36,403.525 C1902.56,403.525 1883.01,397.575 1866.01,380.575 C1849.01,363.575 1839.66,338.925 1839.66,312.15 C1839.66,284.525 1849.435,257.75 1868.135,238.625 C1883.01,223.75 1902.56,214.4 1928.06,214.4 C1956.535,214.4 1974.81,226.725 1985.435,237.775 C2008.385,261.575 2010.51,294.725 2010.51,313.425 L2010.51,318.525 L1882.16,318.525 C1883.01,331.275 1888.535,345.725 1897.46,354.65 C1907.235,364.425 1919.135,366.125 1929.335,366.125 C1940.81,366.125 1949.31,363.575 1957.81,357.2 C1965.035,351.675 1970.56,344.45 1974.385,337.65 Z M1885.135,284.525 L1968.01,284.525 C1966.31,274.75 1961.635,266.25 1955.26,260.3 C1949.735,255.2 1940.81,250.1 1927.21,250.1 C1912.76,250.1 1903.41,256.05 1897.885,261.575 C1891.935,267.1 1887.26,275.6 1885.135,284.525 Z M2050.67,398 L2050.67,219.075 L2092.32,219.075 L2092.32,235.225 C2096.995,229.7 2103.795,223.75 2109.745,220.35 C2117.82,215.675 2125.895,214.4 2135.245,214.4 C2145.445,214.4 2156.495,216.1 2167.97,222.9 L2150.97,260.725 C2141.62,254.775 2133.97,254.35 2129.72,254.35 C2120.795,254.35 2111.87,255.625 2103.795,264.125 C2092.32,276.45 2092.32,293.45 2092.32,305.35 L2092.32,398 L2050.67,398 Z M2298.78,257.325 L2253.73,257.325 L2253.73,398 L2212.08,398 L2212.08,257.325 L2194.23,257.325 L2194.23,219.075 L2212.08,219.075 L2212.08,157.025 C2212.08,129.4 2219.305,111.975 2229.505,100.925 C2237.155,92.85 2250.33,83.5 2272.005,83.5 C2280.93,83.5 2289.855,84.775 2298.78,88.6 L2298.78,129.825 C2290.28,124.725 2284.755,123.45 2278.805,123.45 C2273.705,123.45 2266.055,124.3 2260.53,130.25 C2258.405,132.375 2253.73,138.75 2253.73,151.5 L2253.73,219.075 L2298.78,219.075 L2298.78,257.325 Z M2346.04,114.525 L2389.39,114.525 L2389.39,357.2 L2472.69,357.2 L2472.69,398 L2346.04,398 L2346.04,114.525 Z M2636.55,239.9 L2636.55,219.075 L2678.2,219.075 L2678.2,398 L2636.55,398 L2636.55,379.3 C2618.275,400.55 2595.75,403.525 2583,403.525 C2527.75,403.525 2496.3,357.625 2496.3,308.325 C2496.3,250.1 2536.25,214.4 2583.425,214.4 C2596.6,214.4 2619.55,217.8 2636.55,239.9 Z M2588.525,251.8 C2558.35,251.8 2538.8,277.3 2538.8,309.175 C2538.8,340.2 2558.35,366.125 2588.525,366.125 C2614.875,366.125 2639.1,347 2639.1,309.6 C2639.1,270.5 2614.875,251.8 2588.525,251.8 Z M2772.36,88.175 L2772.36,239.9 C2789.36,217.8 2812.31,214.4 2825.485,214.4 C2872.66,214.4 2912.61,250.1 2912.61,308.325 C2912.61,357.625 2881.16,403.525 2825.91,403.525 C2813.16,403.525 2790.635,400.55 2772.36,379.3 L2772.36,398 L2730.71,398 L2730.71,88.175 L2772.36,88.175 Z M2820.385,251.8 C2794.035,251.8 2769.81,270.5 2769.81,309.6 C2769.81,347 2794.035,366.125 2820.385,366.125 C2850.56,366.125 2870.11,340.2 2870.11,309.175 C2870.11,277.3 2850.56,251.8 2820.385,251.8 Z" id="AudioPerfLab" fill="#000000"></path>
    </g>
</svg>