<?xml version="1.0" encoding="UTF-8"?>
<svg width="3066px" height="513px" viewBox="0 0 3066 513" version="1.1" xmlns="http://www.w3.org/2000/svg" xmlns:xlink="http://www.w3.org/1999/xlink">
    <!-- Generator: Sketch 52.5 (67469) - http://www.bohemiancoding.com/sketch -->
    <title>Logo</title>
    <desc>Created with Sketch.</desc>
    <g id="Page-1" stroke="none" stroke-width="1" fill="none" fill-rule="evenodd">
        <g id="Icon" transform="translate(1.000000, -2.000000)">
            <path d="M146.141456,5.90428975e-15 L365.858544,5.90428975e-15 C416.675112,2.47372737e-15 435.102427,5.29105984 453.680205,15.2265641 C472.257983,25.1620684 486.837932,39.7420171 496.773436,58.3197949 C506.70894,76.8975727 512,95.3248882 512,146.141456 L512,365.858544 C512,416.675112 506.70894,435.102427 496.773436,453.680205 C486.837932,472.257983 472.257983,486.837932 453.680205,496.773436 C435.102427,506.70894 416.675112,512 365.858544,512 L146.141456,512 C95.3248882,512 76.8975727,506.70894 58.3197949,496.773436 C39.7420171,486.837932 25.1620684,472.257983 15.2265641,453.680205 C5.29105984,435.102427 2.28704159e-15,416.675112 0,365.858544 L0,146.141456 C-2.28704159e-15,95.3248882 5.29105984,76.8975727 15.2265641,58.3197949 C25.1620684,39.7420171 39.7420171,25.1620684 58.3197949,15.2265641 C76.8975727,5.29105984 95.3248882,9.33485213e-15 146.141456,5.90428975e-15 Z" id="Combined-Shape" fill="#1C1C1C"></path>
            <g id="Waveform-3" transform="translate(34.000000, 111.000000)">
                <path d="M411,152.25 L411,147.75 C411,144.15 414.266667,141 418,141 C421.733333,141 425,144.15 425,147.75 L425,152.25 C425,155.85 421.733333,159 418,159 C414.266667,159 411,155.85 411,152.25 Z" id="Path" fill="#FFFFFF"></path>
                <path d="M386.793103,155.163934 C385.896552,153.786885 385,151.95082 385,150.114754 C385,148.278689 385.448276,146.442623 386.793103,145.065574 C389.034483,142.311475 393.517241,142.311475 396.206897,145.065574 C397.103448,146.442623 398,148.278689 398,150.114754 C398,151.95082 397.551724,153.786885 396.206897,155.163934 C394.862069,156.081967 393.068966,157 391.275862,157 C389.482759,157 387.689655,156.081967 386.793103,155.163934 Z" id="Path" fill="#FFFFFF"></path>
                <path d="M357,219.136364 L357,81.8636364 C357,78.2030303 360.266667,75 364,75 C367.733333,75 371,78.2030303 371,81.8636364 L371,219.136364 C371,222.79697 367.733333,226 364,226 C360.266667,226 357,222.79697 357,219.136364 Z" id="Path" fill="#FFFFFF"></path>
                <path d="M302,264.150943 L302,35.8490566 C302,32.1962264 305.266667,29 309,29 C312.733333,29 316,32.1962264 316,35.8490566 L316,264.150943 C316,267.803774 312.733333,271 309,271 C305.266667,271 302,267.803774 302,264.150943 Z" id="Path" fill="#FFFFFF"></path>
                <path d="M329,287.142857 L329,12.8571429 C329,9.2 332.266667,6 336,6 C339.733333,6 343,9.2 343,12.8571429 L343,287.142857 C343,290.8 339.733333,294 336,294 C332.266667,294 329,290.8 329,287.142857 Z" id="Path" fill="#FFFFFF"></path>
                <path d="M274,228.148649 L274,72.8513514 C274,69.1972973 277.266667,66 281,66 C284.733333,66 288,69.1972973 288,72.8513514 L288,228.148649 C288,231.802703 284.733333,235 281,235 C277.266667,235 274,231.802703 274,228.148649 Z" id="Path" fill="#FFFFFF"></path>
                <path d="M247,193.181818 L247,106.818182 C247,103.181818 250.266667,100 254,100 C257.733333,100 261,103.181818 261,106.818182 L261,193.181818 C261,196.818182 257.733333,200 254,200 C250.266667,200 247,196.818182 247,193.181818 Z" id="Path" fill="#95F9AB"></path>
                <rect id="Rectangle" stroke="#95F9AB" stroke-width="5" x="171" y="0" width="83" height="299" rx="25"></rect>
                <path d="M219,171.125 L219,129.875 C219,126.208333 222.266667,123 226,123 C229.733333,123 233,126.208333 233,129.875 L233,171.125 C233,174.791667 229.733333,178 226,178 C222.266667,178 219,174.791667 219,171.125 Z" id="Path" fill="#95F9AB"></path>
                <path d="M192,182.117647 L192,117.882353 C192,114.211765 195.266667,111 199,111 C202.733333,111 206,114.211765 206,117.882353 L206,182.117647 C206,185.788235 202.733333,189 199,189 C195.266667,189 192,185.788235 192,182.117647 Z" id="Path" fill="#95F9AB"></path>
                <path d="M164,164.166667 L164,136.833333 C164,133.188889 167.266667,130 171,130 C174.733333,130 178,133.188889 178,136.833333 L178,164.166667 C178,167.811111 174.733333,171 171,171 C167.266667,171 164,167.811111 164,164.166667 Z" id="Path" fill="#95F9AB"></path>
                <path d="M137,157.25 L137,143.75 C137,140.15 140.266667,137 144,137 C147.733333,137 151,140.15 151,143.75 L151,157.25 C151,160.85 147.733333,164 144,164 C140.266667,164 137,160.85 137,157.25 Z" id="Path" fill="#FFFFFF"></path>
                <path d="M113.2,156.533333 C112.266667,156.066667 111.333333,155.6 110.866667,155.133333 C110.4,154.666667 109.933333,153.733333 109.466667,152.8 C109,151.866667 109,150.933333 109,150 C109,149.533333 109,149.066667 109,148.6 C109,148.133333 109.466667,147.666667 109.466667,147.2 C109.466667,146.733333 109.933333,146.266667 109.933333,145.8 C110.4,145.333333 110.4,145.333333 110.866667,144.866667 C110.866667,144.4 111.333333,144.4 111.8,143.933333 C112.266667,143.933333 112.733333,143.466667 113.2,143.466667 C113.666667,143 114.133333,143 114.6,143 C115.533333,143 116.466667,143 117.4,143 C117.866667,143 118.333333,143.466667 118.8,143.466667 C119.266667,143.466667 119.733333,143.466667 120.2,143.933333 C120.666667,144.4 120.666667,144.4 121.133333,144.866667 C121.6,144.866667 121.6,145.333333 122.066667,145.8 C122.066667,146.266667 122.533333,146.733333 122.533333,147.2 C123,147.666667 123,148.133333 123,148.6 C123,149.066667 123,149.533333 123,150 C123,150.933333 123,151.866667 122.533333,152.8 C122.066667,153.733333 121.6,154.666667 121.133333,155.133333 C119.733333,156.066667 117.866667,157 116,157 C115.066667,157 114.133333,157 113.2,156.533333 Z" id="Path" fill="#FFFFFF"></path>
                <path d="M82,152.25 L82,147.75 C82,144.15 85.2666667,141 89,141 C92.7333333,141 96,144.15 96,147.75 L96,152.25 C96,155.85 92.7333333,159 89,159 C85.2666667,159 82,155.85 82,152.25 Z" id="Path" fill="#FFFFFF"></path>
                <path d="M27,152.25 L27,147.75 C27,144.15 30.2666667,141 34,141 C37.7333333,141 41,144.15 41,147.75 L41,152.25 C41,155.85 37.7333333,159 34,159 C30.2666667,159 27,155.85 27,152.25 Z" id="Path" fill="#FFFFFF"></path>
                <path d="M59.2,156.538877 C58.2666667,156.077755 57.3333333,155.616632 56.8666667,155.155509 C55.9333333,153.772141 55,151.92765 55,150.083159 C55,148.238668 55.4666667,146.394177 56.8666667,145.010809 C56.8666667,144.549686 57.3333333,144.549686 57.8,144.088563 C58.2666667,144.088563 58.7333333,143.62744 59.2,143.62744 C59.6666667,143.166318 60.1333333,143.166318 60.6,143.166318 C62.9333333,142.705195 65.2666667,143.166318 67.1333333,145.010809 C67.6,145.010809 67.6,145.471931 68.0666667,145.933054 C68.0666667,146.394177 68.5333333,146.8553 68.5333333,147.316422 C69,147.777545 69,148.238668 69,148.699791 C69,149.160913 69,149.622036 69,150.083159 C69,151.92765 68.5333333,153.772141 67.1333333,155.155509 C65.7333333,156.077755 63.8666667,157 62,157 C61.0666667,157 60.1333333,157 59.2,156.538877 Z" id="Path" fill="#FFFFFF"></path>
                <path d="M1.79310345,155.163934 C1.34482759,154.704918 0.896551724,153.786885 0.448275862,152.868852 C0,151.95082 0,151.032787 0,150.114754 C0,148.278689 0.448275862,146.442623 1.79310345,145.065574 C4.03448276,142.311475 8.51724138,142.311475 11.2068966,145.065574 C12.1034483,146.442623 13,148.278689 13,150.114754 C13,151.032787 13,151.95082 12.5517241,152.868852 C12.1034483,153.786885 11.6551724,154.704918 11.2068966,155.163934 C9.86206897,156.081967 8.06896552,157 6.27586207,157 C4.48275862,157 2.68965517,156.081967 1.79310345,155.163934 Z" id="Path" fill="#FFFFFF"></path>
            </g>
        </g>
        <path d="M841.05,398 L811.3,329.575 L690.175,329.575 L659.15,398 L612.4,398 L753.5,97.95 L887.8,398 L841.05,398 Z M708.025,288.775 L793.875,288.775 L751.8,192.725 L708.025,288.775 Z M915.66,219.075 L957.31,219.075 L957.31,321.5 C957.31,332.125 957.735,344.45 964.96,353.8 C970.485,361.025 980.26,366.125 992.16,366.125 C1004.06,366.125 1013.835,361.025 1019.36,353.8 C1026.585,344.45 1027.01,332.125 1027.01,321.5 L1027.01,219.075 L1068.66,219.075 L1068.66,322.775 C1068.66,345.725 1066.11,364.85 1049.535,381.425 C1033.385,397.575 1011.285,403.525 991.31,403.525 C973.035,403.525 950.935,398 934.785,381.425 C918.21,364.85 915.66,345.725 915.66,322.775 L915.66,219.075 Z M1252.07,239.9 L1252.07,88.175 L1293.72,88.175 L1293.72,398 L1252.07,398 L1252.07,379.3 C1233.795,400.55 1211.27,403.525 1198.52,403.525 C1143.27,403.525 1111.82,357.625 1111.82,308.325 C1111.82,250.1 1151.77,214.4 1198.945,214.4 C1212.12,214.4 1235.07,217.8 1252.07,239.9 Z M1204.045,251.8 C1173.87,251.8 1154.32,277.3 1154.32,309.175 C1154.32,340.2 1173.87,366.125 1204.045,366.125 C1230.395,366.125 1254.62,347 1254.62,309.6 C1254.62,270.5 1230.395,251.8 1204.045,251.8 Z M1346.23,219.075 L1387.88,219.075 L1387.88,398 L1346.23,398 L1346.23,219.075 Z M1340.28,145.125 C1340.28,129.825 1351.755,118.35 1367.055,118.35 C1382.355,118.35 1393.83,129.825 1393.83,145.125 C1393.83,160.425 1382.355,171.9 1367.055,171.9 C1351.755,171.9 1340.28,160.425 1340.28,145.125 Z M1526.665,214.4 C1580.64,214.4 1622.29,253.5 1622.29,308.75 C1622.29,363.575 1580.64,403.525 1526.665,403.525 C1472.69,403.525 1431.04,363.575 1431.04,308.75 C1431.04,253.5 1472.69,214.4 1526.665,214.4 Z M1526.665,366.125 C1559.39,366.125 1579.79,343.6 1579.79,309.175 C1579.79,268.375 1553.015,251.8 1526.665,251.8 C1500.315,251.8 1473.54,268.375 1473.54,309.175 C1473.54,343.6 1493.94,366.125 1526.665,366.125 Z M1674.1,114.525 L1736.575,114.525 C1754,114.525 1778.225,116.225 1798.625,129.825 C1822.425,145.55 1833.9,172.75 1833.9,198.675 C1833.9,215.25 1829.65,240.75 1806.275,260.725 C1783.75,279.85 1757.825,282.825 1737,282.825 L1717.45,282.825 L1717.45,398 L1674.1,398 L1674.1,114.525 Z M1718.45,154.475 L1718.45,242.875 L1738,242.875 C1775.4,242.875 1793.25,224.6 1793.25,198.25 C1793.25,182.525 1786.875,154.475 1737.575,154.475 L1718.45,154.475 Z M1974.385,337.65 L2009.235,357.2 C2001.585,370.8 1990.535,382.7 1979.06,389.925 C1964.61,399.275 1945.485,403.525 1926.36,403.525 C1902.56,403.525 1883.01,397.575 1866.01,380.575 C1849.01,363.575 1839.66,338.925 1839.66,312.15 C1839.66,284.525 1849.435,257.75 1868.135,238.625 C1883.01,223.75 1902.56,214.4 1928.06,214.4 C1956.535,214.4 1974.81,226.725 1985.435,237.775 C2008.385,261.575 2010.51,294.725 2010.51,313.425 L2010.51,318.525 L1882.16,318.525 C1883.01,331.275 1888.535,345.725 1897.46,354.65 C1907.235,364.425 1919.135,366.125 1929.335,366.125 C1940.81,366.125 1949.31,363.575 1957.81,357.2 C1965.035,351.675 1970.56,344.45 1974.385,337.65 Z M1885.135,284.525 L1968.01,284.525 C1966.31,274.75 1961.635,266.25 1955.26,260.3 C1949.735,255.2 1940.81,250.1 1927.21,250.1 C1912.76,250.1 1903.41,256.05 1897.885,261.575 C1891.935,267.1 1887.26,275.6 1885.135,284.525 Z M2050.67,398 L2050.67,219.075 L2092.32,219.075 L2092.32,235.225 C2096.995,229.7 2103.795,223.75 2109.745,220.35 C2117.82,215.675 2125.895,214.4 2135.245,214.4 C2145.445,214.4 2156.495,216.1 2167.97,222.9 L2150.97,260.725 C2141.62,254.775 2133.97,254.35 2129.72,254.35 C2120.795,254.35 2111.87,255.625 2103.795,264.125 C2092.32,276.45 2092.32,293.45 2092.32,305.35 L2092.32,398 L2050.67,398 Z M2298.78,257.325 L2253.73,257.325 L2253.73,398 L2212.08,398 L2212.08,257.325 L2194.23,257.325 L2194.23,219.075 L2212.08,219.075 L2212.08,157.025 C2212.08,129.4 2219.305,111.975 2229.505,100.925 C2237.155,92.85 2250.33,83.5 2272.005,83.5 C2280.93,83.5 2289.855,84.775 2298.78,88.6 L2298.78,129.825 C2290.28,124.725 2284.755,123.45 2278.805,123.45 C2273.705,123.45 2266.055,124.3 2260.53,130.25 C2258.405,132.375 2253.73,138.75 2253.73,151.5 L2253.73,219.075 L2298.78,219.075 L2298.78,257.325 Z M2346.04,114.525 L2389.39,114.525 L2389.39,357.2 L2472.69,357.2 L2472.69,398 L2346.04,398 L2346.04,114.525 Z M2636.55,239.9 L2636.55,219.075 L2678.2,219.075 L2678.2,398 L2636.55,398 L2636.55,379.3 C2618.275,400.55 2595.75,403.525 2583,403.525 C2527.75,403.525 2496.3,357.625 2496.3,308.325 C2496.3,250.1 2536.25,214.4 2583.425,214.4 C2596.6,214.4 2619.55,217.8 2636.55,239.9 Z M2588.525,251.8 C2558.35,251.8 2538.8,277.3 2538.8,309.175 C2538.8,340.2 2558.35,366.125 2588.525,366.125 C2614.875,366.125 2639.1,347 2639.1,309.6 C2639.1,270.5 2614.875,251.8 2588.525,251.8 Z M2772.36,88.175 L2772.36,239.9 C2789.36,217.8 2812.31,214.4 2825.485,214.4 C2872.66,214.4 2912.61,250.1 2912.61,308.325 C2912.61,357.625 2881.16,403.525 2825.91,403.525 C2813.16,403.525 2790.635,400.55 2772.36,379.3 L2772.36,398 L2730.71,398 L2730.71,88.175 L2772.36,88.175 Z M2820.385,251.8 C2794.035,251.8 2769.81,270.5 2769.81,309.6 C2769.81,347 2794.035,366.125 2820.385,366.125 C2850.56,366.125 2870.11,340.2 2870.11,309.175 C2870.11,277.3 2850.56,251.8 2820.385,251.8 Z" id="AudioPerfLab" fill="#000000"></path>
    </g>
</svg>