<?xml version="1.0" encoding="UTF-8"?>
<svg width="3066px" height="513px" viewBox="0 0 3066 513" version="1.1" xmlns="http://www.w3.org/2000/svg" xmlns:xlink="http://www.w3.org/1999/xlink">
    <!-- Generator: Sketch 52.5 (67469) - http://www.bohemiancoding.com/sketch -->
    <title>Logo</title>
    <desc>Created with Sketch.</desc>
    <g id="Page-1" stroke="none" stroke-width="1" fill="none" fill-rule="evenodd">
        <g id="Icon" transform="translate(1.000000, -2.000000)">
            <path d="M146.141456,5.90428975e-15 L365.858544,5.90428975e-15 C416.675112,2.47372737e-15 435.102427,5.29105984 453.680205,15.2265641 C472.257983,25.1620684 486.837932,39.7420171 496.773436,58.3197949 C506.70894,76.8975727 512,95.3248882 512,146.141456 L512,365.858544 C512,416.675112 506.70894,435.102427 496.773436,453.680205 C486.837932,472.257983 472.257983,486.837932 453.680205,496.773436 C435.102427,506.70894 416.675112,512 365.858544,512 L146.141456,512 C95.3248882,512 76.8975727,506.70894 58.3197949,496.773436 C39.7420171,486.837932 25.1620684,472.257983 15.2265641,453.680205 C5.29105984,435.102427 2.28704159e-15,416.675112 0,365.858544 L0,146.141456 C-2.28704159e-15,95.3248882 5.29105984,76.8975727 15.2265641,58.3197949 C25.1620684,39.7420171 39.7420171,25.1620684 58.3197949,15.2265641 C76.8975727,5.29105984 95.3248882,9.33485213e-15 146.141456,5.90428975e-15 Z" id="Combined-Shape" fill="#1C1C1C"></path>
            <g id="Waveform-3" transform="translate(34.000000, 111.000000)">
                <path d="M411,152.25 L411,147.75 C411,144.15 414.266667,141 418,141 C421.733333,141 425,144.15 425,147.75 L425,152.25 C425,155.85 421.733333,159 418,159 C414.266667,159 411,155.85 411,152.25 Z" id="Path" fill="#FFFFFF"></path>
                <path d="M386.793103,155.163934 C385.896552,153.786885 385,151.95082 385,150.114754 C385,148.278689 385.448276,146.442623 386.793103,145.065574 C389.034483,142.311475 393.517241,142.311475 396.206897,145.065574 C397.103448,146.442623 398,148.278689 398,150.114754 C398,151.95082 397.551724,153.786885 396.206897,155.163934 C394.862069,156.081967 393.068966,157 391.275862,157 C389.482759,157 387.689655,156.081967 386.793103,155.163934 Z" id="Path" fill="#FFFFFF"></path>
                <path d="M357,219.136364 L357,81.8636364 C357,78.2030303 360.266667,75 364,75 C367.733333,75 371,78.2030303 371,81.8636364 L371,219.136364 C371,222.79697 367.733333,226 364,226 C360.266667,226 357,222.79697 357,219.136364 Z" id="Path" fill="#FFFFFF"></path>
                <path d="M302,264.150943 L302,35.8490566 C302,32.1962264 305.266667,29 309,29 C312.733333,29 316,32.1962264 316,35.8490566 L316,264.150943 C316,267.803774 312.733333,271 309,271 C305.266667,271 302,267.803774 302,264.150943 Z" id="Path" fill="#FFFFFF"></path>
                <path d="M329,287.142857 L329,12.8571429 C329,9.2 332.266667,6 336,6 C339.733333,6 343,9.2 343,12.8571429 L343,287.142857 C343,290.8 339.733333,294 336,294 C332.266667,294 329,290.8 329,287.142857 Z" id="Path" fill="#FFFFFF"></path>
                <path d="M274,228.148649 L274,72.8513514 C274,69.1972973 277.266667,66 281,66 C284.733333,66 288,69.1972973 288,72.8513514 L288,228.148649 C288,231.802703 284.733333,235 281,235 C277.266667,235 274,231.802703 274,228.148649 Z" id="Path" fill="#FFFFFF"></path>
                <path d="M247,193.181818 L247,106.818182 C247,103.181818 250.266667,100 254,100 C257.733333,100 261,103.181818 261,106.818182 L261,193.181818 C261,196.818182 257.733333,200 254,200 C250.266667,200 247,196.818182 247,193.181818 Z" id="Path" fill="#95F9AB"></path>
                <rect id="Rectangle" stroke="#95F9AB" stroke-width="5" x="171" y="0" width="83" height="299" rx="25"></rect>
                <path d="M219,171.125 L219,129.875 C219,126.208333 222.266667,123 226,123 C229.733333,123 233,126.208333 233,129.875 L233,171.125 C233,174.791667 229.733333,178 226,178 C222.266667,178 219,174.791667 219,171.125 Z" id="Path" fill="#95F9AB"></path>
                <path d="M192,182.117647 L192,117.882353 C192,114.211765 195.266667,111 199,111 C202.733333,111 206,114.211765 206,117.882353 L206,182.117647 C206,185.788235 202.733333,189 199,189 C195.266667,189 192,185.788235 192,182.117647 Z" id="Path" fill="#95F9AB"></path>
                <path d="M164,164.166667 L164,136.833333 C164,133.188889 167.266667,130 171,130 C174.733333,130 178,133.188889 178,136.833333 L178,164.166667 C178,167.811111 174.733333,171 171,171 C167.266667,171 164,167.811111 164,164.166667 Z" id="Path" fill="#95F9AB"></path>
                <path d="M137,157.25 L137,143.75 C137,140.15 140.266667,137 144,137 C147.733333,137 151,140.15 151,143.75 L151,157.25 C151,160.85 147.733333,164 144,164 C140.266667,164 137,160.85 137,157.25 Z" id="Path" fill="#FFFFFF"></path>
                <path d="M113.2,156.533333 C112.266667,156.066667 111.333333,155.6 110.866667,155.133333 C110.4,154.666667 109.933333,153.733333 109.466667,152.8 C109,151.866667 109,150.933333 109,150 C109,149.533333 109,149.066667 109,148.6 C109,148.133333 109.466667,147.666667 109.466667,147.2 C109.466667,146.733333 109.933333,146.266667 109.933333,145.8 C110.4,145.333333 110.4,145.333333 110.866667,144.866667 C110.866667,144.4 111.333333,144.4 111.8,143.933333 C112.266667,143.933333 112.733333,143.466667 113.2,143.466667 C113.666667,143 114.133333,143 114.6,143 C115.533333,143 116.466667,143 117.4,143 C117.866667,143 118.333333,143.466667 118.8,143.466667 C119.266667,143.466667 119.733333,143.466667 120.2,143.933333 C120.666667,144.4 120.666667,144.4 121.133333,144.866667 C121.6,144.866667 121.6,145.333333 122.066667,145.8 C122.066667,146.266667 122.533333,146.733333 122.533333,147.2 C123,147.666667 123,148.133333 123,148.6 C123,149.066667 123,149.533333 123,150 C123,150.933333 123,151.866667 122.533333,152.8 C122.066667,153.733333 121.6,154.666667 121.133333,155.133333 C119.733333,156.066667 117.866667,157 116,157 C115.066667,157 114.133333,157 113.2,156.533333 Z" id="Path" fill="#FFFFFF"></path>
                <path d="M82,152.25 L82,147.75 C82,144.15 85.2666667,141 89,141 C92.7333333,141 96,144.15 96,147.75 L96,152.25 C96,155.85 92.7333333,159 89,159 C85.2666667,159 82,155.85 82,152.25 Z" id="Path" fill="#FFFFFF"></path>
                <path d="M27,152.25 L27,147.75 C27,144.15 30.2666667,141 34,141 C37.7333333,141 41,144.15 41,147.75 L41,152.25 C41,155.85 37.7333333,159 34,159 C30.2666667,159 27,155.85 27,152.25 Z" id="Path" fill="#FFFFFF"></path>
                <path d="M59.2,156.538877 C58.2666667,156.077755 57.3333333,155.616632 56.8666667,155.155509 C55.9333333,153.772141 55,151.92765 55,150.083159 C55,148.238668 55.4666667,146.394177 56.8666667,145.010809 C56.8666667,144.549686 57.3333333,144.549686 57.8,144.088563 C58.2666667,144.088563 58.7333333,143.62744 59.2,143.62744 C59.6666667,143.166318 60.1333333,143.166318 60.6,143.166318 C62.9333333,142.705195 65.2666667,143.166318 67.1333333,145.010809 C67.6,145.010809 67.6,145.471931 68.0666667,145.933054 C68.0666667,146.394177 68.5333333,146.8553 68.5333333,147.316422 C69,147.777545 69,148.238668 69,148.699791 C69,149.160913 69,149.622036 69,150.083159 C69,151.92765 68.5333333,153.772141 67.1333333,155.155509 C65.7333333,156.077755 63.8666667,157 62,157 C61.0666667,157 60.1333333,157 59.2,156.538877 Z" id="Path" fill="#FFFFFF"></path>
                <path d="M1.79310345,155.163934 C1.34482759,154.704918 0.896551724,153.786885 0.448275862,152.868852 C0,151.95082 0,151.032787 0,150.114754 C0,148.278689 0.448275862,146.442623 1.79310345,145.065574 C4.03448276,142.311475 8.51724138,142.311475 11.2068966,145.065574 C12.1034483,146.442623 13,148.278689 13,150.114754 C13,151.032787 13,151.95082 12.5517241,152.868852 C12.1034483,153.786885 11.6551724,154.704918 11.2068966,155.163934 C9.86206897,156.081967 8.06896552,157 6.27586207,157 C4.48275862,157 2.68965517,156.081967 1.79310345,155.163934 Z" id="Path" fill="#FFFFFF"></path>
            </g>
        </g>
        <path d="M839.35,397 L809.6,328.575 L688.475,328.575 L657.45,397 L610.7,397 L751.8,96.95 L886.1,397 L839.35,397 Z M706.325,287.775 L792.175,287.775 L750.1,191.725 L706.325,287.775 Z M913.96,218.075 L955.61,218.075 L955.61,320.5 C955.61,331.125 956.035,343.45 963.26,352.8 C968.785,360.025 978.56,365.125 990.46,365.125 C1002.36,365.125 1012.135,360.025 1017.66,352.8 C1024.885,343.45 1025.31,331.125 1025.31,320.5 L1025.31,218.075 L1066.96,218.075 L1066.96,321.775 C1066.96,344.725 1064.41,363.85 1047.835,380.425 C1031.685,396.575 1009.585,402.525 989.61,402.525 C971.335,402.525 949.235,397 933.085,380.425 C916.51,363.85 913.96,344.725 913.96,321.775 L913.96,218.075 Z M1250.37,238.9 L1250.37,87.175 L1292.02,87.175 L1292.02,397 L1250.37,397 L1250.37,378.3 C1232.095,399.55 1209.57,402.525 1196.82,402.525 C1141.57,402.525 1110.12,356.625 1110.12,307.325 C1110.12,249.1 1150.07,213.4 1197.245,213.4 C1210.42,213.4 1233.37,216.8 1250.37,238.9 Z M1202.345,250.8 C1172.17,250.8 1152.62,276.3 1152.62,308.175 C1152.62,339.2 1172.17,365.125 1202.345,365.125 C1228.695,365.125 1252.92,346 1252.92,308.6 C1252.92,269.5 1228.695,250.8 1202.345,250.8 Z M1344.53,218.075 L1386.18,218.075 L1386.18,397 L1344.53,397 L1344.53,218.075 Z M1338.58,144.125 C1338.58,128.825 1350.055,117.35 1365.355,117.35 C1380.655,117.35 1392.13,128.825 1392.13,144.125 C1392.13,159.425 1380.655,170.9 1365.355,170.9 C1350.055,170.9 1338.58,159.425 1338.58,144.125 Z M1524.965,213.4 C1578.94,213.4 1620.59,252.5 1620.59,307.75 C1620.59,362.575 1578.94,402.525 1524.965,402.525 C1470.99,402.525 1429.34,362.575 1429.34,307.75 C1429.34,252.5 1470.99,213.4 1524.965,213.4 Z M1524.965,365.125 C1557.69,365.125 1578.09,342.6 1578.09,308.175 C1578.09,267.375 1551.315,250.8 1524.965,250.8 C1498.615,250.8 1471.84,267.375 1471.84,308.175 C1471.84,342.6 1492.24,365.125 1524.965,365.125 Z M1671.4,113.525 L1733.875,113.525 C1751.3,113.525 1775.525,115.225 1795.925,128.825 C1819.725,144.55 1831.2,171.75 1831.2,197.675 C1831.2,214.25 1826.95,239.75 1803.575,259.725 C1781.05,278.85 1755.125,281.825 1734.3,281.825 L1714.75,281.825 L1714.75,397 L1671.4,397 L1671.4,113.525 Z M1714.75,153.475 L1714.75,241.875 L1734.3,241.875 C1771.7,241.875 1789.55,223.6 1789.55,197.25 C1789.55,181.525 1783.175,153.475 1733.875,153.475 L1714.75,153.475 Z M1988.685,336.65 L2023.535,356.2 C2015.885,369.8 2004.835,381.7 1993.36,388.925 C1978.91,398.275 1959.785,402.525 1940.66,402.525 C1916.86,402.525 1897.31,396.575 1880.31,379.575 C1863.31,362.575 1853.96,337.925 1853.96,311.15 C1853.96,283.525 1863.735,256.75 1882.435,237.625 C1897.31,222.75 1916.86,213.4 1942.36,213.4 C1970.835,213.4 1989.11,225.725 1999.735,236.775 C2022.685,260.575 2024.81,293.725 2024.81,312.425 L2024.81,317.525 L1896.46,317.525 C1897.31,330.275 1902.835,344.725 1911.76,353.65 C1921.535,363.425 1933.435,365.125 1943.635,365.125 C1955.11,365.125 1963.61,362.575 1972.11,356.2 C1979.335,350.675 1984.86,343.45 1988.685,336.65 Z M1899.435,283.525 L1982.31,283.525 C1980.61,273.75 1975.935,265.25 1969.56,259.3 C1964.035,254.2 1955.11,249.1 1941.51,249.1 C1927.06,249.1 1917.71,255.05 1912.185,260.575 C1906.235,266.1 1901.56,274.6 1899.435,283.525 Z M2067.97,397 L2067.97,218.075 L2109.62,218.075 L2109.62,234.225 C2114.295,228.7 2121.095,222.75 2127.045,219.35 C2135.12,214.675 2143.195,213.4 2152.545,213.4 C2162.745,213.4 2173.795,215.1 2185.27,221.9 L2168.27,259.725 C2158.92,253.775 2151.27,253.35 2147.02,253.35 C2138.095,253.35 2129.17,254.625 2121.095,263.125 C2109.62,275.45 2109.62,292.45 2109.62,304.35 L2109.62,397 L2067.97,397 Z M2304.08,256.325 L2259.03,256.325 L2259.03,397 L2217.38,397 L2217.38,256.325 L2199.53,256.325 L2199.53,218.075 L2217.38,218.075 L2217.38,156.025 C2217.38,128.4 2224.605,110.975 2234.805,99.925 C2242.455,91.85 2255.63,82.5 2277.305,82.5 C2286.23,82.5 2295.155,83.775 2304.08,87.6 L2304.08,128.825 C2295.58,123.725 2290.055,122.45 2284.105,122.45 C2279.005,122.45 2271.355,123.3 2265.83,129.25 C2263.705,131.375 2259.03,137.75 2259.03,150.5 L2259.03,218.075 L2304.08,218.075 L2304.08,256.325 Z M2511.99,154.325 L2446.965,154.325 L2446.965,397 L2403.615,397 L2403.615,154.325 L2338.59,154.325 L2338.59,113.525 L2511.99,113.525 L2511.99,154.325 Z M2607.675,213.4 C2661.65,213.4 2703.3,252.5 2703.3,307.75 C2703.3,362.575 2661.65,402.525 2607.675,402.525 C2553.7,402.525 2512.05,362.575 2512.05,307.75 C2512.05,252.5 2553.7,213.4 2607.675,213.4 Z M2607.675,365.125 C2640.4,365.125 2660.8,342.6 2660.8,308.175 C2660.8,267.375 2634.025,250.8 2607.675,250.8 C2581.325,250.8 2554.55,267.375 2554.55,308.175 C2554.55,342.6 2574.95,365.125 2607.675,365.125 Z M2827.735,213.4 C2881.71,213.4 2923.36,252.5 2923.36,307.75 C2923.36,362.575 2881.71,402.525 2827.735,402.525 C2773.76,402.525 2732.11,362.575 2732.11,307.75 C2732.11,252.5 2773.76,213.4 2827.735,213.4 Z M2827.735,365.125 C2860.46,365.125 2880.86,342.6 2880.86,308.175 C2880.86,267.375 2854.085,250.8 2827.735,250.8 C2801.385,250.8 2774.61,267.375 2774.61,308.175 C2774.61,342.6 2795.01,365.125 2827.735,365.125 Z M2969.52,87.175 L3011.17,87.175 L3011.17,397 L2969.52,397 L2969.52,87.175 Z" id="AudioPerfTool" fill="#000000"></path>
    </g>
</svg>