<?xml version="1.0" encoding="UTF-8"?>
<svg width="25px" height="20px" viewBox="0 0 25 20" version="1.1" xmlns="http://www.w3.org/2000/svg" xmlns:xlink="http://www.w3.org/1999/xlink">
    <title>Standard</title>
    <defs>
        <path d="M5.97113823,10.6267264 C5.94999295,10.6305283 5.95145565,10.6416043 5.97065301,10.669382 L5.97065301,10.669382 L6.03125,10.75 C6.18250335,10.9516711 6.35798239,11.2841577 6.54807692,11.7403846 C6.89676833,12.577244 7.28138982,13.7954302 7.69873056,15.3892983 L7.69873056,15.3892983 L7.89366094,16.1515848 C8.05146602,16.7828051 8.94853398,16.7828051 9.10633906,16.1515848 C9.59941469,14.1792823 10.0495868,12.7059916 10.4519231,11.7403846 C10.6420176,11.2841577 10.8174967,10.9516711 10.96875,10.75 C11.0501053,10.6415263 11.0735175,10.625 11,10.625 L11,10.625 L14,10.625 L14.0928834,10.6206001 C14.9205572,10.5415292 15.5877772,9.3945156 16.3278216,6.99664306 L16.3278216,6.99664306 L16.5,6.421 L16.5877981,6.71926325 C17.3887262,9.39704245 18.0965563,10.625 19,10.625 L19,10.625 L25,10.625 L25,15 C25,17.7614237 22.7614237,20 20,20 L5,20 C2.23857625,20 -3.2145368e-15,17.7614237 -3.55271368e-15,15 L-3.55271368e-15,10.625 Z M-3.55271368e-15,5 C-3.89089055e-15,2.23857625 2.23857625,7.61269267e-15 5,7.10542736e-15 L20,7.10542736e-15 C22.7614237,6.59816204e-15 25,2.23857625 25,5 L25,9.375 L19,9.375 L19.0288618,9.37327364 C19.0500071,9.36947175 19.0485444,9.35839574 19.029347,9.33061796 L19.029347,9.33061796 L18.96875,9.25 C18.8174967,9.04832887 18.6420176,8.71584225 18.4519231,8.25961538 C18.1032317,7.42275601 17.7186102,6.20456976 17.3012694,4.61070172 L17.3012694,4.61070172 L17.1063391,3.84841523 C16.948534,3.21719492 16.051466,3.21719492 15.8936609,3.84841523 C15.4005853,5.82071774 14.9504132,7.29400842 14.5480769,8.25961538 C14.3579824,8.71584225 14.1825033,9.04832887 14.03125,9.25 C13.9498947,9.35847375 13.9264825,9.375 14,9.375 L14,9.375 L11,9.375 L10.9071166,9.37939991 C10.0157756,9.46455315 9.310523,10.7882672 8.5,13.578 L8.5,13.578 L8.41220193,13.2807368 C7.61127383,10.6029575 6.9034437,9.375 6,9.375 L6,9.375 L-3.55271368e-15,9.375 L-3.55271368e-15,5 Z" id="path-1"></path>
    </defs>
    <g id="Fill2" stroke="none" stroke-width="1" fill="none" fill-rule="evenodd">
        <g id="Standard" transform="translate(0.000000, -0.000000)">
            <mask id="mask-2" fill="white">
                <use xlink:href="#path-1"></use>
            </mask>
            <use id="Combined-Shape" fill="#000000" xlink:href="#path-1"></use>
        </g>
    </g>
</svg>