<?xml version="1.0" encoding="UTF-8"?>
<svg width="25px" height="20px" viewBox="0 0 25 20" version="1.1" xmlns="http://www.w3.org/2000/svg" xmlns:xlink="http://www.w3.org/1999/xlink">
    <title>Standard</title>
    <defs>
        <rect id="path-1" x="-3.55271368e-15" y="7.10542736e-15" width="25" height="20" rx="5"></rect>
    </defs>
    <g id="Best2" stroke="none" stroke-width="1" fill="none" fill-rule="evenodd">
        <g id="Standard" transform="translate(0.000000, -0.000000)">
            <mask id="mask-2" fill="white">
                <use xlink:href="#path-1"></use>
            </mask>
            <rect stroke="#000000" stroke-width="1.25" x="0.625" y="0.625" width="23.75" height="18.75" rx="5"></rect>
            <path d="M-2,10 C2.66666667,10 5.33333333,10 6,10 C6.66666667,10 7.5,12 8.5,16 C9.5,12 10.3333333,10 11,10 C12,10 13,10 14,10 C14.6666667,10 15.5,8 16.5,4 C17.5,8 18.3333333,10 19,10 C19.6666667,10 22.6666667,10 28,10" id="Path-2" stroke="#000000" stroke-width="1.25" stroke-linecap="round" stroke-linejoin="round" mask="url(#mask-2)"></path>
        </g>
    </g>
</svg>